# File created by Blade
# Date/Time:  Wed Jan 28 15:39:58 2015
#---------------------------------------------------------
:version 1.10
:name HOM
:units
  mass 1.0
  length 1.000000
  angle deg
:documentation
     Acclaim Skeleton File
:root
   axis xyz
   order TX TY TZ RX RY RZ
   position 0.000000 0.000000 0.000000
   orientation 0 0 0
:bonedata
   begin
      id 1
      name Spine_dum
      direction 0.000000 1.000000 0.000000
      length 6.864287
      axis 0.0 0.0 0.0 xyz
   end
   begin
      id 2
      name LeftUpLeg_dum
      direction 1.000000 0.000000 0.000000
      length 4.117376
      axis 0.0 0.0 0.0 xyz
   end
   begin
      id 3
      name RightUpLeg_dum
      direction -1.000000 0.000000 0.000000
      length 4.117376
      axis 0.0 0.0 0.0 xyz
   end
   begin
      id 4
      name Spine
      direction 0.000000 1.000000 0.000000
      length 0.000000
      axis 0.0 0.0 0.0 xyz
      dof rx ry rz
   end
   begin
      id 5
      name Spine_dum1
      direction 0.000000 1.000000 0.000000
      length 15.393827
      axis 0.0 0.0 0.0 xyz
   end
   begin
      id 6
      name Spine_dum2
      direction 0.000000 1.000000 0.000000
      length 9.314826
      axis 0.0 0.0 0.0 xyz
   end
   begin
      id 7
      name Spine_dum3
      direction 0.000000 1.000000 0.000000
      length 9.314826
      axis 0.0 0.0 0.0 xyz
   end
   begin
      id 8
      name Head
      direction 0.000000 1.000000 0.000000
      length 4.527550
      axis 0.0 0.0 0.0 xyz
      dof rx ry rz
   end
   begin
      id 9
      name LeftShoulder
      direction 1.000000 0.000000 0.000000
      length 8.275398
      axis 0.0 0.0 -90.0 xyz
      dof rx ry rz
   end
   begin
      id 10
      name LeftArm
      direction 1.000000 0.000000 0.000000
      length 12.002200
      axis 0.0 0.0 -90.0 xyz
      dof rx ry rz
   end
   begin
      id 11
      name LeftForeArm
      direction 1.000000 0.000000 0.000000
      length 10.144633
      axis 0.0 0.0 -90.0 xyz
      dof ry rz rx
   end
   begin
      id 12
      name LeftHand
      direction 0.000000 0.000000 0.000000
      length 0.000000
      axis 0.0 0.0 -90.0 xyz
      dof rx ry rz
   end
   begin
      id 13
      name LeftHand_dum1
      direction 0.000000 0.000000 0.000000
      length 0.000000
      axis 0.0 0.0 -90.0 xyz
   end
   begin
      id 14
      name LeftHand_dum2
      direction 1.000000 0.000000 0.000000
      length 3.937000
      axis 0.0 0.0 -90.0 xyz
   end
   begin
      id 15
      name LeftHandThumb1
      direction 0.000000 0.000000 1.000000
      length 3.937000
      axis 0.0 0.0 -90.0 xyz
      dof rx rz ry
   end
   begin
      id 16
      name RightShoulder
      direction -1.000000 0.000000 0.000000
      length 8.275398
      axis 0.0 0.0 90.0 xyz
      dof rx ry rz
   end
   begin
      id 17
      name RightArm
      direction -1.000000 0.000000 0.000000
      length 12.002200
      axis 0.0 0.0 90.0 xyz
      dof rx ry rz
   end
   begin
      id 18
      name RightForeArm
      direction -1.000000 0.000000 0.000000
      length 10.144633
      axis 0.0 0.0 90.0 xyz
      dof ry rz rx
   end
   begin
      id 19
      name RightHand
      direction 0.000000 0.000000 0.000000
      length 0.000000
      axis 0.0 0.0 90.0 xyz
      dof rx ry rz
   end
   begin
      id 20
      name RightHand_dum1
      direction 0.000000 0.000000 0.000000
      length 0.000000
      axis 0.0 0.0 90.0 xyz
   end
   begin
      id 21
      name RightHand_dum2
      direction -1.000000 0.000000 0.000000
      length 3.937000
      axis 0.0 0.0 90.0 xyz
   end
   begin
      id 22
      name RightHandThumb1
      direction 0.000000 0.000000 1.000000
      length 3.937000
      axis 0.0 0.0 90.0 xyz
      dof rx rz ry
   end
   begin
      id 23
      name LeftUpLeg
      direction 0.000000 -1.000000 0.000000
      length 19.394322
      axis 0.0 0.0 0.0 xyz
      dof rx ry rz
   end
   begin
      id 24
      name LeftLeg
      direction 0.000000 -1.000000 0.000000
      length 17.609563
      axis 0.0 0.0 0.0 xyz
      dof rx ry rz
   end
   begin
      id 25
      name LeftFoot
      direction 0.000000 -0.258819 0.965926
      length 6.085393
      axis 15.0 0.0 0.0 xyz
      dof rx ry rz
   end
   begin
      id 26
      name LeftToeBase
      direction 0.000000 0.000000 1.000000
      length 2.952750
      axis 0.0 0.0 0.0 xyz
      dof rx ry rz
   end
   begin
      id 27
      name RightUpLeg
      direction 0.000000 -1.000000 0.000000
      length 19.394322
      axis 0.0 0.0 0.0 xyz
      dof rx ry rz
   end
   begin
      id 28
      name RightLeg
      direction 0.000000 -1.000000 0.000000
      length 17.609563
      axis 0.0 0.0 0.0 xyz
      dof rx ry rz
   end
   begin
      id 29
      name RightFoot
      direction 0.000000 -0.258819 0.965926
      length 6.085393
      axis 15.0 0.0 0.0 xyz
      dof rx ry rz
   end
   begin
      id 30
      name RightToeBase
      direction 0.000000 0.000000 1.000000
      length 2.952750
      axis 0.0 0.0 0.0 xyz
      dof rx ry rz
   end
:hierarchy
   begin
      root Spine_dum LeftUpLeg_dum RightUpLeg_dum
      Spine_dum Spine
      LeftUpLeg_dum LeftUpLeg
      RightUpLeg_dum RightUpLeg
      Spine Spine_dum1 Spine_dum2 Spine_dum3
      Spine_dum1 Head
      Spine_dum2 LeftShoulder
      Spine_dum3 RightShoulder
      LeftShoulder LeftArm
      LeftArm LeftForeArm
      LeftForeArm LeftHand
      LeftHand LeftHand_dum1 LeftHand_dum2
      LeftHand_dum1 LeftHandThumb1
      RightShoulder RightArm
      RightArm RightForeArm
      RightForeArm RightHand
      RightHand RightHand_dum1 RightHand_dum2
      RightHand_dum1 RightHandThumb1
      LeftUpLeg LeftLeg
      LeftLeg LeftFoot
      LeftFoot LeftToeBase
      RightUpLeg RightLeg
      RightLeg RightFoot
      RightFoot RightToeBase
   end

# File created by Blade
# Date/Time:  Wed Jan 28 15:40:07 2015
# Frame Rate: 120.000 fps
#------------------------------------------------------
:FULLY-SPECIFIED
:DEGREES
1673
root -8.140533 39.919024 -15.968768 17.228760 -20.341470 16.863522
Spine 21.980045 -8.584072 9.897493
Head 2.678078 -14.771887 -2.191005
LeftShoulder -9.053970 14.989884 12.312391
LeftArm 22.462488 20.170282 -80.305270
LeftForeArm 11.118347 -0.000000 54.605019
LeftHand 1.485999 -0.000000 0.608846
LeftHandThumb1 -26.253704 0.000000 33.147579
RightShoulder -3.798670 8.475032 -25.641531
RightArm 4.937476 41.154471 52.108858
RightForeArm -12.580412 -0.000000 61.019917
RightHand -10.020288 -0.000000 -54.210933
RightHandThumb1 -24.326973 -0.000000 -32.862282
LeftUpLeg -32.207957 4.075583 -10.809033
LeftLeg 19.260163 -0.000000 -0.000000
LeftFoot -3.063936 -0.361688 -21.793647
LeftToeBase 5.748630 -0.000000 -0.000000
RightUpLeg -31.977615 -12.814774 -1.345333
RightLeg 24.293515 -0.000000 -0.000000
RightFoot -24.708539 -24.312234 18.985935
RightToeBase 4.040175 -0.000000 -0.000000
1674
root -8.128327 39.916432 -15.942709 17.085646 -20.147516 16.602826
Spine 22.085306 -8.485505 9.721671
Head 2.668747 -14.451459 -2.398396
LeftShoulder -9.141101 15.051414 12.206452
LeftArm 22.438369 20.470526 -80.263575
LeftForeArm 11.246015 -0.000000 54.065528
LeftHand 1.765693 -0.000000 0.525002
LeftHandThumb1 -26.253704 0.000000 33.147579
RightShoulder -3.798212 8.426537 -25.507134
RightArm 5.004104 40.688097 52.125242
RightForeArm -12.280701 0.000000 59.981707
RightHand -9.834843 -0.000000 -54.130901
RightHandThumb1 -24.326973 -0.000000 -32.862282
LeftUpLeg -32.301543 4.301768 -10.865816
LeftLeg 20.205927 -0.000000 -0.000000
LeftFoot -3.343037 0.002487 -21.571058
LeftToeBase 5.821754 -0.000000 -0.000000
RightUpLeg -31.644941 -12.849196 -1.184040
RightLeg 24.246543 -0.000000 -0.000000
RightFoot -24.669918 -24.353061 19.047685
RightToeBase 4.008449 -0.000000 -0.000000
1675
root -8.120062 39.913111 -15.917655 16.966764 -19.779417 16.250825
Spine 22.195735 -8.554587 9.713975
Head 2.583432 -14.068820 -2.613417
LeftShoulder -9.231387 15.099870 12.079192
LeftArm 22.370566 20.716301 -80.297355
LeftForeArm 11.512808 -0.000000 53.546496
LeftHand 1.422929 -0.000000 0.325379
LeftHandThumb1 -26.253704 0.000000 33.147579
RightShoulder -3.801502 8.442929 -25.425371
RightArm 5.005615 40.184448 52.071350
RightForeArm -12.053356 -0.000000 58.943391
RightHand -9.703982 -0.000000 -53.797169
RightHandThumb1 -24.326973 -0.000000 -32.862282
LeftUpLeg -32.405315 4.419139 -10.785332
LeftLeg 21.182795 -0.000000 -0.000000
LeftFoot -3.650195 0.407184 -21.420414
LeftToeBase 5.839152 -0.000000 -0.000000
RightUpLeg -31.233548 -12.978583 -0.908746
RightLeg 24.092596 -0.000000 -0.000000
RightFoot -24.731331 -24.479838 19.324191
RightToeBase 4.152820 -0.000000 -0.000000
1676
root -8.096117 39.909164 -15.895028 16.903357 -19.685487 16.120668
Spine 22.124064 -8.299813 9.396077
Head 2.626844 -13.784098 -2.819120
LeftShoulder -9.257597 15.276122 12.040629
LeftArm 22.404833 21.001334 -80.237606
LeftForeArm 11.764169 0.000000 53.011767
LeftHand 1.232984 -0.000000 0.191066
LeftHandThumb1 -26.253704 0.000000 33.147579
RightShoulder -3.865357 8.343262 -25.300881
RightArm 5.105112 39.663556 52.130647
RightForeArm -11.858265 -0.000000 57.916578
RightHand -9.737157 0.000000 -53.405509
RightHandThumb1 -24.326973 -0.000000 -32.862282
LeftUpLeg -32.598765 4.622884 -10.954134
LeftLeg 22.037484 -0.000000 -0.000000
LeftFoot -3.870758 0.887381 -21.113095
LeftToeBase 5.739084 -0.000000 -0.000000
RightUpLeg -31.112811 -13.003314 -0.859078
RightLeg 24.166750 -0.000000 -0.000000
RightFoot -24.673375 -24.409454 19.257045
RightToeBase 3.994468 -0.000000 -0.000000
1677
root -8.084133 39.906343 -15.858639 16.648553 -19.451335 15.907023
Spine 22.320023 -8.223986 9.185534
Head 2.547416 -13.470020 -3.011686
LeftShoulder -9.303232 15.310662 11.934983
LeftArm 22.348032 21.287894 -80.145071
LeftForeArm 11.885344 0.000000 52.533278
LeftHand 1.270489 0.000000 0.149202
LeftHandThumb1 -26.253704 0.000000 33.147579
RightShoulder -3.939937 8.375186 -25.182393
RightArm 5.181990 39.019036 52.077302
RightForeArm -11.472797 -0.000000 56.803379
RightHand -9.538295 -0.000000 -53.190586
RightHandThumb1 -24.326973 -0.000000 -32.862282
LeftUpLeg -32.524615 4.759210 -10.941260
LeftLeg 22.810109 -0.000000 -0.000000
LeftFoot -4.017160 1.250952 -20.723321
LeftToeBase 5.624090 -0.000000 -0.000000
RightUpLeg -30.668728 -13.200699 -0.716570
RightLeg 24.097266 -0.000000 -0.000000
RightFoot -24.599909 -24.365647 19.217895
RightToeBase 3.857555 -0.000000 -0.000000
1678
root -8.067918 39.903166 -15.832680 16.507892 -19.229932 15.689912
Spine 22.371894 -8.089280 9.005188
Head 2.542900 -13.191354 -3.258923
LeftShoulder -9.261881 15.318150 11.904095
LeftArm 22.201455 21.555103 -80.117237
LeftForeArm 12.165705 -0.000000 52.020345
LeftHand 1.448189 -0.000000 0.351985
LeftHandThumb1 -26.253704 0.000000 33.147579
RightShoulder -4.012655 8.358426 -25.079588
RightArm 5.245058 38.338589 51.988274
RightForeArm -10.944847 0.000000 55.720629
RightHand -9.324007 -0.000000 -52.807060
RightHandThumb1 -24.326973 -0.000000 -32.862282
LeftUpLeg -32.577614 4.874533 -10.924260
LeftLeg 23.563733 -0.000000 -0.000000
LeftFoot -4.202888 1.582295 -20.456176
LeftToeBase 5.722031 -0.000000 -0.000000
RightUpLeg -30.381332 -13.349357 -0.565118
RightLeg 24.094091 -0.000000 -0.000000
RightFoot -24.600061 -24.304139 19.330686
RightToeBase 3.860971 -0.000000 -0.000000
1679
root -8.054228 39.900253 -15.806009 16.395231 -19.009200 15.450560
Spine 22.403168 -7.988236 8.820962
Head 2.504871 -12.810215 -3.462616
LeftShoulder -9.353344 15.446161 11.827159
LeftArm 22.222113 21.748838 -80.054959
LeftForeArm 12.002059 0.000000 51.470640
LeftHand 1.321894 0.000000 0.179515
LeftHandThumb1 -26.253704 0.000000 33.147579
RightShoulder -4.064551 8.268710 -24.953701
RightArm 5.513460 37.732163 51.988553
RightForeArm -10.197381 0.000000 54.716749
RightHand -9.706527 -0.000000 -51.890147
RightHandThumb1 -24.326973 -0.000000 -32.862282
LeftUpLeg -32.629978 4.954041 -10.854175
LeftLeg 24.252882 -0.000000 -0.000000
LeftFoot -4.366939 1.883007 -20.126739
LeftToeBase 5.720733 -0.000000 -0.000000
RightUpLeg -30.056552 -13.385589 -0.433365
RightLeg 23.983770 -0.000000 -0.000000
RightFoot -24.574056 -24.352545 19.367226
RightToeBase 3.897836 -0.000000 -0.000000
1680
root -8.038107 39.896811 -15.775408 16.240628 -18.867268 15.288001
Spine 22.458922 -7.806282 8.533869
Head 2.432480 -12.515187 -3.675871
LeftShoulder -9.424174 15.327817 11.737219
LeftArm 21.983878 21.986816 -79.926643
LeftForeArm 11.625318 -0.000000 51.064364
LeftHand 1.261524 0.000000 -0.275517
LeftHandThumb1 -26.253704 0.000000 33.147579
RightShoulder -4.157934 8.216971 -24.855251
RightArm 5.711184 37.170872 52.048194
RightForeArm -9.659805 -0.000000 53.660432
RightHand -9.593747 -0.000000 -50.884118
RightHandThumb1 -24.326973 -0.000000 -32.862282
LeftUpLeg -32.630420 5.201181 -10.894300
LeftLeg 24.836727 -0.000000 -0.000000
LeftFoot -4.475915 1.995603 -19.667713
LeftToeBase 5.710907 -0.000000 -0.000000
RightUpLeg -29.749013 -13.383096 -0.391036
RightLeg 23.931373 -0.000000 -0.000000
RightFoot -24.582568 -24.372595 19.447200
RightToeBase 3.763794 -0.000000 -0.000000
1681
root -8.025656 39.894552 -15.743175 16.132971 -18.524966 14.999742
Spine 22.465427 -7.859615 8.469339
Head 2.402168 -12.093654 -3.972044
LeftShoulder -9.546912 15.345684 11.608028
LeftArm 21.929559 22.318809 -79.847089
LeftForeArm 11.736163 -0.000000 50.497245
LeftHand 1.161309 -0.000000 0.101536
LeftHandThumb1 -26.253704 0.000000 33.147579
RightShoulder -4.194014 8.084234 -24.810803
RightArm 6.052406 36.444731 52.106667
RightForeArm -8.714049 0.000000 52.418960
RightHand -8.713536 -0.000000 -50.440440
RightHandThumb1 -24.326973 -0.000000 -32.862282
LeftUpLeg -32.632068 5.188831 -10.713120
LeftLeg 25.384992 -0.000000 -0.000000
LeftFoot -4.595677 2.175869 -19.399036
LeftToeBase 5.598377 -0.000000 -0.000000
RightUpLeg -29.373162 -13.611200 -0.148396
RightLeg 23.782109 -0.000000 -0.000000
RightFoot -24.513641 -24.284371 19.471159
RightToeBase 4.119388 -0.000000 -0.000000
1682
root -8.011367 39.891131 -15.713511 16.053700 -18.277205 14.740183
Spine 22.433209 -7.783982 8.354395
Head 2.334438 -11.677523 -4.239128
LeftShoulder -9.600767 15.516256 11.512140
LeftArm 21.979102 22.468237 -79.778050
LeftForeArm 11.772805 -0.000000 49.962520
LeftHand 1.128090 -0.000000 0.014199
LeftHandThumb1 -26.253704 0.000000 33.147579
RightShoulder -4.230583 7.984641 -24.782427
RightArm 6.187745 35.653525 52.085380
RightForeArm -8.667782 -0.000000 51.448842
RightHand -8.914237 -0.000000 -49.557724
RightHandThumb1 -24.326973 -0.000000 -32.862282
LeftUpLeg -32.668959 5.353932 -10.608070
LeftLeg 25.832364 -0.000000 -0.000000
LeftFoot -4.663402 2.201305 -19.224880
LeftToeBase 5.697380 -0.000000 -0.000000
RightUpLeg -29.085143 -13.707260 0.033445
RightLeg 23.676966 -0.000000 -0.000000
RightFoot -24.531914 -24.380425 19.602365
RightToeBase 3.776830 -0.000000 -0.000000
